<svg xmlns="http://www.w3.org/2000/svg" width="24" height="24" fill="#fff" viewBox="0 0 24 24"><path d="M12 2.163c3.204 0 3.584.012 4.849.07 1.17.054 1.987.24 2.448.403a4.92 4.92 0 0 1 1.675 1.093 4.918 4.918 0 0 1 1.092 1.675c.164.46.35 1.278.403 2.447.059 1.266.069 1.646.069 4.851 0 3.204-.011 3.584-.069 4.849-.054 1.17-.239 1.987-.403 2.448a4.922 4.922 0 0 1-1.093 1.675 4.92 4.92 0 0 1-1.675 1.092c-.46.164-1.278.35-2.447.403-1.266.059-1.645.069-4.85.069s-3.584-.011-4.849-.069c-1.17-.054-1.987-.239-2.448-.403a4.916 4.916 0 0 1-1.675-1.092 4.918 4.918 0 0 1-1.092-1.675c-.164-.46-.35-1.278-.403-2.448-.059-1.265-.069-1.645-.069-4.849s.011-3.584.069-4.849c.054-1.17.239-1.987.403-2.448a4.922 4.922 0 0 1 1.093-1.675 4.916 4.916 0 0 1 1.675-1.092c.46-.164 1.278-.35 2.448-.403 1.265-.059 1.645-.069 4.849-.069M12 0C8.741 0 8.332.014 7.052.072 5.775.13 4.785.346 4.014.637a7.07 7.07 0 0 0-2.548 1.636A7.073 7.073 0 0 0 .637 4.015c-.29.77-.507 1.76-.565 3.037C.014 8.332 0 8.741 0 12c0 3.259.014 3.668.072 4.948.058 1.277.274 2.267.565 3.037a7.075 7.075 0 0 0 1.636 2.548 7.076 7.076 0 0 0 2.548 1.636c.77.29 1.76.507 3.037.565 1.28.058 1.689.072 4.948.072s3.668-.014 4.948-.072c1.277-.058 2.267-.274 3.037-.565a7.08 7.08 0 0 0 2.548-1.636 7.078 7.078 0 0 0 1.636-2.548c.29-.77.507-1.76.565-3.037.058-1.28.072-1.689.072-4.948s-.014-3.668-.072-4.948c-.058-1.277-.274-2.267-.565-3.037A7.076 7.076 0 0 0 19.986.637a7.075 7.075 0 0 0-2.548-1.636c-.77-.29-1.76-.507-3.037-.565C15.668.014 15.259 0 12 0zm0 5.838a6.162 6.162 0 1 0 0 12.324 6.162 6.162 0 0 0 0-12.324zm0 10.162a3.999 3.999 0 1 1 0-7.998 3.999 3.999 0 0 1 0 7.998zm6.406-11.845a1.44 1.44 0 1 0 0 2.881 1.44 1.44 0 0 0 0-2.881z"/></svg>