<svg xmlns="http://www.w3.org/2000/svg" width="24" height="24" fill="#fff" viewBox="0 0 24 24"><path d="M16.803 1.044c.349.053.696.098 1.042.13v3.55a6.342 6.342 0 0 1-2.214-.417v7.92c0 3.514-2.897 6.376-6.456 6.376a6.386 6.386 0 0 1-1.991-.31 6.184 6.184 0 0 1-2.15-1.246 6.37 6.37 0 0 1-1.684-5.602 6.175 6.175 0 0 1 1.22-2.748 6.39 6.39 0 0 1 4.646-2.696v3.555a2.809 2.809 0 0 0-1.333.442 2.783 2.783 0 0 0-1.15 1.587 2.8 2.8 0 0 0 1.72 3.392c.318.13.659.197 1.003.198a2.814 2.814 0 0 0 2.811-2.82V1h3.456c.004.02.008.04.012.06z"/></svg>